<?xml version="1.0" encoding="UTF-8" standalone="no"?>
<svg
   viewBox="0 0 512 512"
   version="1.1"
   id="svg1"
   sodipodi:docname="tr-youtube.svg"
   inkscape:version="1.4.2 (f4327f4, 2025-05-13)"
   xmlns:inkscape="http://www.inkscape.org/namespaces/inkscape"
   xmlns:sodipodi="http://sodipodi.sourceforge.net/DTD/sodipodi-0.dtd"
   xmlns="http://www.w3.org/2000/svg"
   xmlns:svg="http://www.w3.org/2000/svg">
  <defs
     id="defs1" />
  <sodipodi:namedview
     id="namedview1"
     pagecolor="#ffffff"
     bordercolor="#000000"
     borderopacity="0.25"
     inkscape:showpageshadow="2"
     inkscape:pageopacity="0.0"
     inkscape:pagecheckerboard="0"
     inkscape:deskcolor="#d1d1d1"
     inkscape:zoom="0.79589844"
     inkscape:cx="142.60613"
     inkscape:cy="146.37546"
     inkscape:window-width="1904"
     inkscape:window-height="1001"
     inkscape:window-x="17"
     inkscape:window-y="27"
     inkscape:window-maximized="0"
     inkscape:current-layer="svg1" />
  <!--! Font Awesome Free 6.7.2 by @fontawesome - https://fontawesome.com License - https://fontawesome.com/license/free (Icons: CC BY 4.0, Fonts: SIL OFL 1.1, Code: MIT License) Copyright 2024 Fonticons, Inc. -->
  <path
     d="m 501.66541,11.574607 c 3.69987,4.269217 8.55772,6.657771 8.55772,13.844288 V 76.649501 264.49507 c 0,18.1233 -16.68726,40.95528 -40.2967,35.60036 -21.5438,-4.88641 -44.29468,-5.48314 -44.29468,-36.93302 0,-31.44992 12.08962,-40.04257 36.29874,-40.04257 5.11588,0 19.76496,-108.51549 -15.14588,-128.312418 -23.83557,-13.51647 -50.03186,21.278858 -63.18401,45.317378 -27.31808,49.92992 13.32657,172.57389 13.32657,172.57389 2.12738,31.37787 -39.18699,68.02839 -63.39609,68.02839 -24.20911,0 -57.17705,-39.2438 -57.17705,-70.69371 0,-31.44989 16.53183,-61.80929 40.74094,-61.80929 5.11588,0 18.48922,1.58267 23.05698,3.71728 l -1.33266,-102.54219 -6.21907,-46.34419 c -1.33435,-9.943535 6.4691,-28.255473 12.63558,-31.172772 L 477.63318,11.126461 c 4.43072,-2.0634549 20.33234,-3.8922244 24.03223,0.448146 z"
     id="path1"
     sodipodi:nodetypes="cscssssssssssccsccc"
     style="stroke-width:0.570098;fill:#ffc233;fill-opacity:1" />
  <path
     d="m 66.604962,392.23217 c -26.241916,1.57091 -63.3669253,21.0555 -63.3669253,46.95302 v 23.47651 c 0,25.89753 28.4160963,46.95302 63.3669253,46.95302 H 446.8065 c 34.95083,0 63.36692,-21.05549 63.36692,-46.95302 v -23.47651 c 0,-25.89752 -37.17459,-44.70191 -63.36692,-46.95302 -131.45156,-11.29766 -243.41935,-8.18812 -380.201538,0 z"
     id="path1-8"
     style="stroke-width:0.852281;fill:#008080;fill-opacity:1"
     sodipodi:nodetypes="sssssssss" />
  <path
     d="M 166.30014,31.553567 C 160.9101,18.559106 151.05261,2.1458534 136.02865,2.1458534 c -15.02395,0 -27.39473,14.1444476 -33.38103,27.1866166 -32.394598,70.577179 6.21907,232.88679 6.21907,232.88679 0,0 -33.89544,-56.8077 -62.302725,-69.49176 -11.70339,-5.22565 -29.388126,-9.06302 -38.4511486,0 -10.1087891,10.10879 -5.1089843,29.53605 0,42.88796 C 27.501151,286.28528 108.20471,347.2568 116.76064,356.8 c 10.61015,11.83446 27.84097,11.83445 38.45113,0 0,0 89.25949,-70.51472 108.64783,-121.18454 5.10898,-13.35191 10.10879,-32.77917 0,-42.88796 -9.06302,-9.06302 -27.84901,-11.84163 -38.45114,0 l -62.21785,69.49176 c 0,0 32.57145,-159.63808 3.10953,-230.665693 z"
     style="stroke-width:0.896445;fill:#008080;fill-opacity:1"
     id="path1-5"
     sodipodi:nodetypes="asacaaassaasca" />
</svg>
